<svg width="413" height="78" viewBox="0 0 413 78" fill="none" xmlns="http://www.w3.org/2000/svg">
<path d="M382.394 77.0319C361.16 78.3227 51.8419 78.3227 30.6078 77.0319C23.2721 76.5755 16.4149 74.5353 11.204 71.2588C5.99312 67.9822 2.75071 63.6719 2.02895 59.0619C-0.00964862 45.7105 -0.00964862 32.2672 2.02895 18.9158C2.75843 14.3098 6.00424 10.0047 11.2144 6.73266C16.4246 3.46061 23.2775 1.42361 30.6078 0.968059C51.8419 -0.322689 361.16 -0.322685 382.394 0.968063C389.724 1.42362 396.577 3.46061 401.787 6.73266C406.997 10.0047 410.243 14.3098 410.973 18.9158C413.009 32.2598 413.009 45.6957 410.973 59.0396C410.259 63.6537 407.02 67.9692 401.808 71.2502C396.597 74.5313 389.735 76.5747 382.394 77.0319Z" fill="black"/>
</svg>
