<svg width="50" height="49" viewBox="0 0 50 49" fill="none" xmlns="http://www.w3.org/2000/svg">
<path d="M32.6531 33.9902C31.7636 33.9902 30.9105 34.3436 30.2815 34.9726C29.6525 35.6015 29.2992 36.4546 29.2992 37.3441C29.2992 37.4039 29.2992 37.4595 29.2992 37.5193C29.2992 37.5791 29.2992 37.6325 29.2992 37.6902C29.2993 38.4643 28.9949 39.2075 28.4517 39.7591C27.9085 40.3106 27.1701 40.6264 26.396 40.6382H23.354C22.5974 40.5934 21.8856 40.2646 21.3609 39.7175C20.8319 39.1694 20.5271 38.4432 20.5064 37.6817C20.506 37.1835 20.4088 36.6901 20.2202 36.229C20.0258 35.7678 19.7411 35.3501 19.3828 35.0007C19.024 34.672 18.6026 34.4191 18.1438 34.2573C17.6771 34.0782 17.1801 33.9919 16.6804 34.0031H6.97337C6.46757 33.9971 5.96662 34.1021 5.50578 34.3107C4.92563 34.5792 4.43442 35.0081 4.09017 35.5467C3.74591 36.0854 3.56299 36.7113 3.56299 37.3505C3.56299 37.9898 3.74591 38.6157 4.09017 39.1544C4.43442 39.693 4.92563 40.1219 5.50578 40.3904C5.96552 40.6 6.46602 40.7051 6.97124 40.698H17.4068C18.1826 40.6955 18.9286 40.9968 19.4852 41.5374C20.0417 42.078 20.3646 42.8149 20.3847 43.5905V44.3638C20.3782 44.9272 20.4956 45.4851 20.7286 45.998C21.0269 46.6462 21.5044 47.1956 22.1047 47.5813C22.705 47.967 23.4031 48.173 24.1167 48.1749H25.6633C26.1605 48.1744 26.6532 48.0809 27.116 47.8993C27.5732 47.7167 27.9882 47.4426 28.3358 47.0939C28.6829 46.7571 28.9634 46.3577 29.1625 45.9168C29.3521 45.4598 29.4494 44.9697 29.4487 44.4749V43.6375C29.4755 42.8744 29.7875 42.1492 30.323 41.605C30.8585 41.0607 31.5787 40.7371 32.3412 40.698H32.6531C33.0935 40.698 33.5297 40.6113 33.9366 40.4427C34.3435 40.2742 34.7132 40.0271 35.0246 39.7157C35.3361 39.4043 35.5831 39.0345 35.7517 38.6276C35.9202 38.2207 36.007 37.7846 36.007 37.3441C36.007 36.9037 35.9202 36.4676 35.7517 36.0606C35.5831 35.6537 35.3361 35.284 35.0246 34.9726C34.7132 34.6611 34.3435 34.4141 33.9366 34.2455C33.5297 34.077 33.0935 33.9902 32.6531 33.9902Z" fill="#FD7125"/>
<path d="M39.8663 21.1055H29.5247C28.6358 21.106 27.7826 21.4558 27.1492 22.0796C26.8413 22.387 26.5935 22.7493 26.4186 23.1477C26.1009 23.9185 26.0808 24.7798 26.3622 25.5645C26.6436 26.3493 27.2066 27.0015 27.9418 27.3946C28.4287 27.6552 28.9724 27.7916 29.5247 27.7919H40.9493C41.6173 27.7907 42.261 28.042 42.7514 28.4956C43.2418 28.9491 43.5425 29.5713 43.5933 30.2373C43.6442 30.9033 43.4413 31.564 43.0254 32.0866C42.6095 32.6093 42.0114 32.9555 41.3509 33.0556C40.8896 33.1235 40.4483 33.2899 40.0569 33.5434C39.6656 33.7969 39.3333 34.1317 39.0827 34.5249C38.8321 34.9181 38.669 35.3607 38.6045 35.8225C38.54 36.2843 38.5756 36.7546 38.7089 37.2015C38.8421 37.6483 39.07 38.0613 39.3769 38.4123C39.6838 38.7634 40.0627 39.0443 40.4877 39.236C40.9128 39.4278 41.3741 39.5258 41.8404 39.5236C42.3067 39.5213 42.7671 39.4188 43.1902 39.2229C44.9668 38.5481 46.4961 37.349 47.5751 35.7846C48.6541 34.2203 49.2318 32.3647 49.2315 30.4643C49.2293 27.9818 48.2416 25.6017 46.4856 23.8468C44.7296 22.092 42.3488 21.106 39.8663 21.1055Z" fill="#FD7125"/>
<path d="M17.3281 14.9344C18.2176 14.9344 19.0707 14.5811 19.6997 13.9521C20.3287 13.3231 20.682 12.4701 20.682 11.5805C20.682 11.5207 20.682 11.4652 20.682 11.4075C20.682 11.3498 20.682 11.2922 20.682 11.2345C20.6808 10.46 20.9849 9.71623 21.5283 9.16441C22.0718 8.61258 22.8108 8.29714 23.5852 8.28646H26.6272C27.3825 8.33331 28.0925 8.66277 28.616 9.20932C29.144 9.75813 29.4486 10.4839 29.4705 11.2452C29.4701 11.7434 29.5673 12.2369 29.7568 12.6978C29.9498 13.1597 30.2347 13.5776 30.5942 13.9261C30.952 14.256 31.3737 14.509 31.8332 14.6695C32.2998 14.8486 32.7969 14.9349 33.2965 14.9238H43.0036C43.5087 14.9295 44.0089 14.8245 44.469 14.6161C45.0492 14.3476 45.5404 13.9188 45.8846 13.3801C46.2289 12.8414 46.4118 12.2155 46.4118 11.5763C46.4118 10.937 46.2289 10.3111 45.8846 9.77244C45.5404 9.23379 45.0492 8.80489 44.469 8.5364C44.0097 8.32786 43.5101 8.22284 43.0057 8.22879H32.5745C31.7981 8.23292 31.0512 7.93219 30.4943 7.39127C29.9374 6.85035 29.615 6.11246 29.5965 5.33632V4.563C29.603 3.99964 29.4856 3.44175 29.2526 2.92878C28.9537 2.28105 28.4761 1.73212 27.8759 1.3465C27.2757 0.960893 26.5779 0.754629 25.8645 0.751953H24.3179C23.8208 0.75307 23.3282 0.846515 22.8653 1.02753C22.4078 1.20957 21.9926 1.4837 21.6455 1.83289C21.2979 2.17102 21.0174 2.57184 20.8188 3.01423C20.6281 3.47098 20.5308 3.96125 20.5325 4.45619V5.2936C20.5047 6.05633 20.1924 6.78103 19.6571 7.32506C19.1218 7.86908 18.4022 8.193 17.64 8.23306H17.3281C16.4386 8.23306 15.5856 8.58641 14.9566 9.21539C14.3276 9.84436 13.9742 10.6974 13.9742 11.587C13.9742 12.4765 14.3276 13.3295 14.9566 13.9585C15.5856 14.5875 16.4386 14.9408 17.3281 14.9408V14.9344Z" fill="#FD7125"/>
<path d="M10.1143 27.8146H20.4537C21.3427 27.8146 22.1961 27.4646 22.8292 26.8405C23.1385 26.5342 23.3865 26.1717 23.5598 25.7723C23.7703 25.2618 23.8518 24.7072 23.7971 24.1576C23.7424 23.608 23.5532 23.0804 23.2462 22.6213C22.9391 22.1622 22.5237 21.7858 22.0367 21.5254C21.5497 21.265 21.006 21.1286 20.4537 21.1282H9.03122C8.36307 21.1299 7.71897 20.879 7.22818 20.4256C6.73739 19.9722 6.43623 19.35 6.38513 18.6838C6.33403 18.0176 6.53677 17.3567 6.95268 16.8338C7.36858 16.3109 7.96687 15.9646 8.62747 15.8645C9.08904 15.797 9.53068 15.6309 9.92241 15.3776C10.3141 15.1243 10.6468 14.7897 10.8977 14.3965C11.1487 14.0032 11.3121 13.5606 11.3768 13.0986C11.4416 12.6367 11.4061 12.1662 11.273 11.7191C11.1398 11.272 10.912 10.8589 10.605 10.5076C10.298 10.1564 9.91902 9.87535 9.49379 9.68355C9.06856 9.49175 8.60705 9.39369 8.14057 9.39604C7.67409 9.39838 7.21358 9.50108 6.7903 9.69716C5.01375 10.3719 3.48445 11.5711 2.40543 13.1355C1.32641 14.6998 0.748705 16.5553 0.749024 18.4557C0.751288 20.9383 1.73892 23.3184 3.49494 25.0732C5.25096 26.828 7.63175 27.814 10.1143 27.8146Z" fill="#FD7125"/>
</svg>
