<svg width="546" height="118" viewBox="0 0 546 118" fill="none" xmlns="http://www.w3.org/2000/svg">
<path d="M506.102 116.535C477.962 118.488 68.0404 118.488 39.9001 116.535C30.1785 115.845 21.0911 112.759 14.1854 107.802C7.27971 102.845 2.98274 96.3242 2.02622 89.35C-0.675408 69.1518 -0.675408 48.8145 2.02622 28.6163C2.99297 21.6481 7.29446 15.1353 14.1992 10.1853C21.104 5.23528 30.1857 2.15367 39.9001 1.4645C68.0404 -0.48817 477.962 -0.488165 506.102 1.46451C515.817 2.15368 524.898 5.23529 531.803 10.1853C538.708 15.1353 543.009 21.6481 543.976 28.6163C546.675 48.8033 546.675 69.1293 543.976 89.3164C543.03 96.2966 538.737 102.825 531.831 107.789C524.924 112.752 515.831 115.844 506.102 116.535Z" fill="white"/>
</svg>
