<svg width="218" height="50" viewBox="0 0 218 50" fill="none" xmlns="http://www.w3.org/2000/svg">
<path d="M215.342 20.5858L210.706 31.4475L206.318 20.5858H203.673L209.41 34.3273L206.215 41.6684H208.816L217.908 20.5858H215.342Z" fill="currentColor"/>
<path d="M69.8447 35.0382C68.9148 35.0464 67.9887 34.915 67.0945 34.648C66.2526 34.3943 65.461 33.9853 64.7568 33.4402C64.0599 32.9029 63.4834 32.2131 63.0674 31.419C62.6316 30.5092 62.3903 29.5111 62.3602 28.4941H64.7568C64.8038 29.3966 65.0969 30.2662 65.6015 31C66.0784 31.6289 66.71 32.1103 67.4285 32.3926C68.2133 32.6746 69.0385 32.8135 69.8683 32.8034C70.633 32.8105 71.3937 32.6856 72.1195 32.4337C72.7659 32.2246 73.3378 31.8184 73.7618 31.267C74.1974 30.6613 74.4195 29.9168 74.3904 29.1596C74.3988 28.4509 74.1772 27.7601 73.7618 27.2C73.3689 26.629 72.6185 26.2388 71.5302 26.0334L67.7231 25.2898C66.4557 25.0892 65.2829 24.4703 64.3757 23.5233C63.9604 23.0816 63.6332 22.5579 63.4132 21.9828C63.1944 21.4052 63.0863 20.7883 63.0949 20.1671C63.0633 19.0583 63.3793 17.9691 63.9946 17.0655C64.6266 16.2083 65.4605 15.5374 66.4148 15.1183C67.4475 14.6613 68.5584 14.4293 69.6797 14.4363C70.8212 14.4168 71.9537 14.6492 73.0035 15.1183C73.9522 15.5384 74.769 16.2288 75.3608 17.1107C76.0101 18.0783 76.3871 19.2168 76.4491 20.3971H74.025C73.9767 19.6365 73.7234 18.9059 73.2942 18.2897C72.9137 17.7389 72.3921 17.3117 71.7895 17.0573C71.1237 16.7789 70.4124 16.6394 69.6954 16.6464C68.9851 16.6385 68.279 16.7608 67.6092 17.008C67.0014 17.2272 66.4594 17.6097 66.0376 18.1171C65.6259 18.6456 65.4134 19.3134 65.4405 19.9945C65.4343 20.3635 65.5036 20.7297 65.6439 21.0683C65.7842 21.407 65.9921 21.7104 66.2537 21.9582C66.8745 22.5136 67.6284 22.8815 68.4343 23.0222L72.0488 23.7452C73.5968 24.0409 74.7663 24.6448 75.5573 25.5568C76.3917 26.5201 76.8318 27.787 76.7831 29.0856C76.8081 30.0069 76.6022 30.9189 76.1859 31.7312C75.8047 32.4665 75.267 33.1004 74.6143 33.584C73.9389 34.0885 73.1834 34.464 72.3828 34.6931C71.5562 34.9308 70.7019 35.0469 69.8447 35.0382Z" fill="currentColor"/>
<path d="M84.8804 35.0381C83.6361 35.0595 82.4075 34.7454 81.313 34.1261C80.2755 33.5172 79.418 32.6219 78.8339 31.5381C78.2197 30.3407 77.9111 28.9979 77.9381 27.6395C77.9 26.2836 78.2021 24.941 78.8143 23.7451C79.4124 22.6722 80.279 21.7902 81.3209 21.194C82.4197 20.5607 83.6574 20.2379 84.9119 20.2573C86.1594 20.2335 87.3905 20.5567 88.4793 21.194C89.5163 21.7855 90.3739 22.6693 90.9545 23.7451C91.574 24.9405 91.8841 26.2843 91.8542 27.6436C91.8821 29.0088 91.5621 30.3572 90.927 31.5504C90.3441 32.6351 89.4862 33.5307 88.4478 34.1385C87.3511 34.7502 86.1234 35.0598 84.8804 35.0381ZM84.8804 32.8444C85.6582 32.8555 86.4259 32.6605 87.112 32.2775C87.8097 31.8689 88.3768 31.2545 88.7425 30.511C89.1843 29.6248 89.3996 28.6342 89.3672 27.6354C89.3988 26.6366 89.1837 25.6462 88.7425 24.7598C88.3834 24.0313 87.8255 23.4308 87.1395 23.0344C86.4679 22.6362 85.7075 22.4307 84.9354 22.4387C84.1551 22.4342 83.3867 22.6393 82.7039 23.0344C82.0186 23.4482 81.4537 24.0488 81.0695 24.7721C80.6244 25.657 80.409 26.6486 80.4448 27.6477C80.4102 28.6435 80.6155 29.6323 81.0419 30.5234C81.4202 31.2588 81.9859 31.8702 82.6764 32.2898C83.3542 32.668 84.1122 32.8616 84.8804 32.8526V32.8444Z" fill="currentColor"/>
<path d="M98.608 35.0377C97.9388 35.0632 97.2721 34.9394 96.6522 34.6745C96.0324 34.4096 95.4736 34.0096 95.0131 33.5013C94.0885 32.4798 93.6275 30.905 93.6301 28.777V20.5609H96.0778V28.5223C96.0778 29.9601 96.3489 31.0406 96.8911 31.7636C97.1687 32.1214 97.5226 32.4063 97.9245 32.5953C98.3263 32.7844 98.765 32.8724 99.2052 32.8522C99.7188 32.8756 100.231 32.7721 100.699 32.5501C101.167 32.3282 101.579 31.994 101.9 31.5746C102.553 30.701 102.879 29.4768 102.879 27.902V20.5815H105.311V34.6967H102.863V32.4209C102.478 33.2218 101.884 33.8926 101.15 34.3558C100.378 34.8219 99.499 35.0578 98.608 35.0377Z" fill="currentColor"/>
<path d="M107.915 34.6972V20.5819H110.367V22.9235C110.793 22.0998 111.435 21.4201 112.218 20.9639C113.048 20.4804 113.986 20.2352 114.936 20.2533C116.537 20.2533 117.807 20.7654 118.747 21.7897C119.688 22.8139 120.16 24.3873 120.166 26.5098V34.7259H117.714V26.7563C117.714 25.3185 117.423 24.2381 116.842 23.515C116.527 23.1443 116.136 22.8537 115.697 22.6657C115.258 22.4777 114.785 22.3973 114.312 22.4305C113.777 22.4173 113.246 22.5279 112.757 22.7545C112.268 22.981 111.833 23.3179 111.483 23.741C110.732 24.5955 110.355 25.795 110.355 27.3848V34.6972H107.915Z" fill="currentColor"/>
<path d="M128.77 35.0376C127.536 35.0696 126.32 34.7349 125.261 34.0722C124.259 33.4308 123.443 32.5143 122.904 31.4225C122.33 30.2425 122.04 28.9339 122.059 27.6102C122.036 26.2952 122.326 24.9948 122.904 23.8267C123.44 22.7398 124.257 21.8318 125.261 21.2057C126.322 20.549 127.537 20.2147 128.77 20.2403C129.782 20.2164 130.784 20.4609 131.681 20.951C132.506 21.377 133.19 22.0508 133.646 22.8859V14.2097H136.093V34.6966H133.646V32.392C133.154 33.1322 132.525 33.761 131.795 34.2406C130.883 34.8111 129.831 35.0883 128.77 35.0376ZM129.1 32.8192C129.912 32.8461 130.714 32.628 131.411 32.1909C132.108 31.7538 132.669 31.1163 133.029 30.3544C133.399 29.5058 133.591 28.584 133.591 27.6513C133.591 26.7186 133.399 25.7967 133.029 24.9482C132.67 24.1853 132.109 23.5469 131.412 23.1096C130.715 22.6724 129.912 22.4549 129.1 22.4833C128.271 22.4636 127.453 22.6901 126.743 23.1365C126.053 23.5722 125.496 24.2032 125.136 24.9564C124.739 25.7955 124.546 26.7239 124.574 27.6595C124.55 28.5947 124.743 29.522 125.136 30.3626C125.494 31.1175 126.051 31.7491 126.743 32.1825C127.456 32.6211 128.273 32.8417 129.1 32.8192Z" fill="currentColor"/>
<path d="M167.603 35.0381C166.36 35.0596 165.132 34.7454 164.039 34.1261C163.002 33.5172 162.144 32.6219 161.56 31.538C160.944 30.3414 160.636 28.9981 160.664 27.6395C160.632 26.2818 160.941 24.939 161.56 23.7451C162.158 22.6722 163.025 21.7901 164.067 21.194C165.165 20.5598 166.403 20.2369 167.658 20.2573C168.904 20.2336 170.134 20.5569 171.221 21.194C172.259 21.7854 173.118 22.6692 173.7 23.7451C174.317 24.9412 174.625 26.2851 174.592 27.6436C174.625 29.0083 174.307 30.3573 173.673 31.5504C173.091 32.6348 172.235 33.5304 171.198 34.1384C170.093 34.7555 168.855 35.0653 167.603 35.0381ZM167.603 32.8444C168.38 32.8559 169.148 32.6608 169.834 32.2775C170.534 31.8703 171.103 31.2557 171.469 30.511C171.914 29.6259 172.13 28.6348 172.097 27.6354C172.126 26.6365 171.909 25.6465 171.469 24.7597C171.109 24.0322 170.551 23.432 169.866 23.0344C169.193 22.6357 168.431 22.4302 167.658 22.4387C166.876 22.4357 166.106 22.6422 165.422 23.0385C164.739 23.4535 164.176 24.0539 163.792 24.7762C163.347 25.6611 163.131 26.6527 163.167 27.6518C163.13 28.6477 163.336 29.6371 163.764 30.5275C164.149 31.2646 164.724 31.8749 165.422 32.2898C166.099 32.6675 166.855 32.8611 167.622 32.8526L167.603 32.8444Z" fill="currentColor"/>
<path d="M176.564 34.6972V20.5819H179.004V22.9235C179.43 22.0998 180.072 21.4201 180.855 20.9639C181.685 20.4804 182.623 20.2352 183.573 20.2533C185.171 20.2533 186.442 20.7654 187.384 21.7897C188.327 22.8139 188.799 24.3887 188.799 26.5139V34.7054H186.359V26.7563C186.359 25.3185 186.07 24.2381 185.491 23.515C184.925 22.792 184.084 22.4346 182.961 22.4305C182.425 22.4183 181.893 22.5298 181.404 22.757C180.914 22.9843 180.478 23.3216 180.128 23.7451C179.377 24.5996 179.004 25.7991 179.004 27.3889V34.7013L176.564 34.6972Z" fill="currentColor"/>
<path d="M155.565 14.7771L148.74 31.0943L141.794 14.7771H138.938V34.6971H141.385V19.6369L147.782 34.6847H149.66L155.993 19.6082V34.6971H158.441V14.7771H155.565Z" fill="currentColor"/>
<path d="M202.892 23.6008C202.383 22.5952 201.618 21.7573 200.68 21.1812C199.658 20.53 198.477 20.2031 197.281 20.2404C196.051 20.2157 194.837 20.5408 193.769 21.1812C192.759 21.7858 191.94 22.6852 191.412 23.7692C190.824 24.9748 190.533 26.315 190.567 27.6678C190.531 29.0146 190.819 30.3493 191.404 31.5499C191.952 32.6186 192.767 33.5128 193.761 34.138C194.825 34.759 196.028 35.0737 197.246 35.05C198.209 35.0702 199.166 34.8697 200.047 34.4625C200.85 34.0918 201.558 33.5289 202.114 32.8193C202.656 32.1347 203.057 31.3403 203.292 30.4859H200.872C200.605 31.2154 200.131 31.8419 199.513 32.2811C198.831 32.7343 198.034 32.9619 197.226 32.9343C196.491 32.9381 195.768 32.7413 195.128 32.3633C194.459 31.9646 193.913 31.3728 193.557 30.6584C193.185 29.9101 192.983 29.082 192.967 28.2388H203.654C203.654 27.9923 203.677 27.7623 203.677 27.5569V26.8996C203.689 25.7479 203.419 24.6122 202.892 23.6008ZM192.987 26.3327C193.038 25.6821 193.222 25.0504 193.525 24.4799C193.891 23.8071 194.437 23.2614 195.097 22.9107C195.75 22.5498 196.479 22.3635 197.218 22.3684C198.247 22.3319 199.25 22.7098 200.02 23.4242C200.399 23.7976 200.703 24.2466 200.913 24.7447C201.124 25.2428 201.237 25.7799 201.245 26.3244L192.987 26.3327Z" fill="currentColor"/>
<path d="M31.8094 34.6722C30.9223 34.6722 30.0715 35.0404 29.4439 35.6959C28.8162 36.3514 28.4631 37.2406 28.4621 38.1682V38.5338C28.4621 39.341 28.1585 40.1158 27.6166 40.6908C27.0748 41.2658 26.3384 41.5948 25.5665 41.6066H22.5334C21.7788 41.5622 21.0683 41.2201 20.5454 40.6495C20.0198 40.0794 19.7159 39.3253 19.6928 38.5338C19.6926 38.0138 19.5952 37.4989 19.406 37.0179C19.2132 36.5367 18.93 36.1009 18.5731 35.7362C18.2137 35.3945 17.7931 35.1306 17.3355 34.9598C16.8705 34.7745 16.3755 34.6852 15.8779 34.6969H6.19327C5.68945 34.6896 5.19033 34.7991 4.73174 35.0173C4.29848 35.2262 3.91306 35.5298 3.60145 35.9076C3.28983 36.2854 3.05925 36.7286 2.92523 37.2073C2.79121 37.6861 2.75686 38.1894 2.8245 38.6832C2.89214 39.1771 3.06019 39.65 3.31735 40.0702C3.66334 40.6308 4.15359 41.0779 4.73174 41.3602C5.1907 41.5773 5.68956 41.6866 6.19327 41.6806H16.6008C17.3747 41.6771 18.1191 41.9908 18.6744 42.5545C19.2296 43.1182 19.5515 43.887 19.571 44.6959V45.5175C19.5637 46.1052 19.6804 46.6873 19.9129 47.2224C20.2111 47.8978 20.6874 48.4704 21.2858 48.8728C21.8843 49.2752 22.5801 49.4907 23.2917 49.4941H24.8357C25.3319 49.4933 25.8235 49.3958 26.2855 49.2065C26.7397 49.0203 27.1538 48.7409 27.5034 48.3849C27.8495 48.0324 28.1282 47.6141 28.3245 47.1525C28.5155 46.675 28.613 46.1624 28.6113 45.6449V44.774C28.6379 43.9784 28.9489 43.2222 29.4828 42.6548C30.0168 42.0874 30.7348 41.75 31.4951 41.7093H31.8094C32.694 41.7053 33.5412 41.3362 34.1668 40.6823C34.4761 40.3573 34.7217 39.9721 34.8897 39.5485C35.0583 39.124 35.145 38.6689 35.145 38.2093C35.145 37.7496 35.0583 37.2945 34.8897 36.8701C34.7217 36.4464 34.4761 36.0613 34.1668 35.7362C33.8562 35.4104 33.4861 35.1534 33.0785 34.9803C32.6791 34.791 32.2478 34.6863 31.8094 34.6722Z" fill="currentColor"/>
<path d="M39.0031 21.2391H28.6977C27.8153 21.2421 26.9691 21.6063 26.3404 22.2538C26.0312 22.5728 25.7832 22.9507 25.6097 23.3671C25.4004 23.8988 25.3193 24.4761 25.3735 25.0483C25.4278 25.6204 25.6157 26.1699 25.9207 26.6483C26.2257 27.1267 26.6385 27.5193 27.1228 27.7918C27.607 28.0642 28.1479 28.208 28.6977 28.2105H40.0914C40.7579 28.2085 41.4003 28.4706 41.8894 28.9439C42.3785 29.4172 42.678 30.0667 42.7277 30.7616C42.7777 31.4569 42.5741 32.1462 42.158 32.6911C41.7418 33.236 41.1439 33.596 40.4843 33.6988C40.024 33.7695 39.5837 33.9429 39.1932 34.2073C38.8027 34.4717 38.4713 34.8209 38.2213 35.2311C37.9724 35.6425 37.8104 36.1047 37.7459 36.5868C37.6794 37.0681 37.7143 37.5588 37.8481 38.0246C37.982 38.4901 38.2097 38.9201 38.516 39.2858C38.9775 39.8374 39.5974 40.2179 40.2829 40.3704C40.9684 40.523 41.6828 40.4393 42.3191 40.132C44.3635 39.3227 46.0716 37.7891 47.1459 35.7983C48.2201 33.8076 48.5924 31.4859 48.1979 29.2376C47.8034 26.9894 46.6671 24.9571 44.9869 23.4948C43.3067 22.0324 41.1892 21.2327 39.0031 21.235V21.2391Z" fill="currentColor"/>
<path d="M16.5183 14.7972C17.4054 14.7972 18.2562 14.429 18.8839 13.7735C19.5115 13.118 19.8647 12.2288 19.8657 11.3013V10.9398C19.8646 10.1318 20.1678 9.35598 20.7097 8.78011C21.2517 8.20424 21.9887 7.8747 22.7613 7.86282H25.7944C26.5413 7.91752 27.2418 8.26179 27.7588 8.82821C28.2856 9.40076 28.5895 10.1579 28.6113 10.9521C28.6119 11.4707 28.7094 11.9842 28.8982 12.4638C29.089 12.9461 29.3725 13.3824 29.7311 13.7456C30.0882 14.0906 30.5095 14.3549 30.9687 14.522C31.4337 14.7073 31.9287 14.7966 32.4263 14.7849H42.1345C42.6383 14.7922 43.1374 14.6827 43.596 14.4645C44.1745 14.1851 44.6643 13.7383 45.0076 13.177C45.3508 12.6157 45.5331 11.9634 45.533 11.2972C45.531 10.6319 45.3477 9.9811 45.0047 9.42088C44.6616 8.86065 44.173 8.41424 43.596 8.13395C43.1374 7.91568 42.6383 7.80626 42.1345 7.81352H31.7309C30.9563 7.81698 30.2113 7.50267 29.656 6.93811C29.1006 6.37355 28.7792 5.60377 28.7606 4.7941V3.97249C28.768 3.38485 28.6512 2.80274 28.4188 2.26765C28.1193 1.59354 27.6426 1.0224 27.0443 0.620883C26.446 0.219367 25.7509 0.00403015 25.04 0H23.496C22.9998 0.000815596 22.5082 0.0983357 22.0462 0.287563C21.5919 0.485644 21.1813 0.779288 20.8401 1.15026C20.4945 1.50331 20.2159 1.92145 20.0189 2.38267C19.8261 2.8581 19.7285 3.36981 19.7321 3.88622V4.76124C19.7038 5.55617 19.3923 6.31131 18.8587 6.87835C18.3251 7.44539 17.608 7.78334 16.8483 7.82585H16.5183C15.6722 7.88657 14.8797 8.28085 14.3009 8.92902C13.7221 9.57718 13.4001 10.4309 13.4001 11.3177C13.4001 12.2045 13.7221 13.0582 14.3009 13.7064C14.8797 14.3545 15.6722 14.7488 16.5183 14.8095V14.7972Z" fill="currentColor"/>
<path d="M9.32846 28.2308H19.6614C20.5437 28.2274 21.3898 27.8632 22.0187 27.2161C22.3254 26.8958 22.572 26.5182 22.7455 26.1028C22.9515 25.5725 23.0302 24.9975 22.9746 24.4281C22.9189 23.8586 22.7308 23.3121 22.4265 22.8363C22.1222 22.3605 21.7111 21.9698 21.2291 21.6985C20.747 21.4272 20.2088 21.2835 19.6614 21.28H8.26767C7.60383 21.2765 6.96558 21.0117 6.48009 20.5383C5.99459 20.0649 5.69747 19.4176 5.64792 18.7254C5.59837 18.0332 5.80002 17.3469 6.21271 16.8032C6.6254 16.2595 7.21883 15.8983 7.87478 15.7916C8.33525 15.7193 8.77581 15.5457 9.16738 15.2822C9.7558 14.8833 10.205 14.2961 10.4479 13.6082C10.6908 12.9204 10.7143 12.1688 10.515 11.4658C10.3793 10.9945 10.1489 10.5589 9.83921 10.1882C9.53242 9.82018 9.15313 9.52589 8.72735 9.32552C8.30314 9.12813 7.84406 9.02596 7.37975 9.02563C6.9141 9.02926 6.4546 9.13712 6.03215 9.34196C3.98771 10.1513 2.27961 11.6849 1.20537 13.6757C0.13113 15.6664 -0.241159 17.9882 0.153351 20.2364C0.54786 22.4846 1.68417 24.5169 3.36433 25.9792C5.0445 27.4416 7.16204 28.2413 9.34811 28.239L9.32846 28.2308Z" fill="currentColor"/>
</svg>
