<svg width="62" height="64" viewBox="0 0 62 64" fill="none" xmlns="http://www.w3.org/2000/svg">
<path d="M46.9548 62.2452C36.3433 63.2717 25.6575 63.2717 15.046 62.2452C11.3801 61.8822 7.9533 60.2598 5.34921 57.6541C2.74513 55.0484 1.12477 51.6206 0.764074 47.9544C-0.254691 37.3366 -0.254691 26.6457 0.764074 16.0279C1.12863 12.3649 2.75069 8.94127 5.35442 6.33915C7.95816 3.73703 11.3828 2.1171 15.046 1.75481C25.6575 0.728335 36.3433 0.728335 46.9548 1.75481C50.618 2.1171 54.0427 3.73703 56.6464 6.33915C59.2502 8.94127 60.8722 12.3649 61.2368 16.0279C62.2544 26.6398 62.2544 37.3248 61.2368 47.9367C60.8799 51.606 59.2613 55.038 56.6569 57.6473C54.0524 60.2565 50.6235 61.8816 46.9548 62.2452Z" fill="black"/>
<path d="M44.1812 23.4858C44.5694 23.098 44.8338 22.6037 44.941 22.0655C45.0482 21.5274 44.9934 20.9695 44.7835 20.4625C44.5736 19.9555 44.218 19.5222 43.7618 19.2173C43.3056 18.9124 42.7692 18.7496 42.2204 18.7496C41.6717 18.7496 41.1353 18.9124 40.6791 19.2173C40.2229 19.5222 39.8673 19.9555 39.6574 20.4625C39.4475 20.9695 39.3927 21.5274 39.4999 22.0655C39.6071 22.6037 39.8715 23.098 40.2597 23.4858C40.7809 24.0036 41.4858 24.2942 42.2204 24.2942C42.9551 24.2942 43.66 24.0036 44.1812 23.4858Z" fill="white"/>
<path d="M44.4165 34.335C44.8047 33.9472 45.0691 33.4529 45.1763 32.9148C45.2835 32.3766 45.2286 31.8187 45.0187 31.3117C44.8089 30.8047 44.4533 30.3714 43.9971 30.0665C43.5409 29.7616 43.0045 29.5988 42.4557 29.5988C41.907 29.5988 41.3706 29.7616 40.9144 30.0665C40.4582 30.3714 40.1026 30.8047 39.8927 31.3117C39.6828 31.8187 39.628 32.3766 39.7352 32.9148C39.8424 33.4529 40.1068 33.9472 40.495 34.335C41.0162 34.8528 41.721 35.1434 42.4557 35.1434C43.1904 35.1434 43.8953 34.8528 44.4165 34.335Z" fill="white"/>
<path d="M33.334 23.2464C33.721 22.8581 33.9842 22.3638 34.0904 21.826C34.1967 21.2881 34.1412 20.7309 33.931 20.2246C33.7207 19.7182 33.3652 19.2856 32.9092 18.9812C32.4532 18.6768 31.9173 18.5143 31.3691 18.5143C30.8208 18.5143 30.2849 18.6768 29.8289 18.9812C29.373 19.2856 29.0174 19.7182 28.8072 20.2246C28.5969 20.7309 28.5414 21.2881 28.6477 21.826C28.7539 22.3638 29.0172 22.8581 29.4042 23.2464C29.6619 23.505 29.9681 23.7102 30.3053 23.8502C30.6425 23.9902 31.004 24.0623 31.3691 24.0623C31.7342 24.0623 32.0957 23.9902 32.4329 23.8502C32.77 23.7102 33.0763 23.505 33.334 23.2464Z" fill="white"/>
<path d="M44.4138 41.4945C44.0255 41.1076 43.5312 40.8443 42.9934 40.7381C42.4555 40.6318 41.8983 40.6873 41.392 40.8976C40.8857 41.1078 40.453 41.4634 40.1486 41.9193C39.8442 42.3753 39.6818 42.9112 39.6818 43.4594C39.6818 44.0077 39.8442 44.5436 40.1486 44.9996C40.453 45.4556 40.8857 45.8111 41.392 46.0213C41.8983 46.2316 42.4555 46.2871 42.9934 46.1808C43.5312 46.0746 44.0255 45.8113 44.4138 45.4244C44.6724 45.1666 44.8776 44.8604 45.0176 44.5232C45.1576 44.186 45.2297 43.8245 45.2297 43.4594C45.2297 43.0944 45.1576 42.7328 45.0176 42.3957C44.8776 42.0585 44.6724 41.7523 44.4138 41.4945Z" fill="white"/>
<path d="M22.2478 23.2486C22.6359 22.8608 22.9003 22.3665 23.0075 21.8284C23.1147 21.2902 23.0599 20.7324 22.85 20.2254C22.6401 19.7184 22.2846 19.285 21.8283 18.9801C21.3721 18.6752 20.8357 18.5125 20.287 18.5125C19.7383 18.5125 19.2019 18.6752 18.7456 18.9801C18.2894 19.285 17.9339 19.7184 17.724 20.2254C17.5141 20.7324 17.4593 21.2902 17.5665 21.8284C17.6737 22.3665 17.9381 22.8608 18.3262 23.2486C18.8464 23.7684 19.5516 24.0604 20.287 24.0604C21.0223 24.0604 21.7276 23.7684 22.2478 23.2486Z" fill="white"/>
<path d="M29.4049 30.4052L18.5567 41.2617C18.0598 41.7864 17.7872 42.4843 17.7971 43.2069C17.8069 43.9294 18.0983 44.6197 18.6093 45.1307C19.1203 45.6416 19.8105 45.933 20.5331 45.9429C21.2556 45.9527 21.9535 45.6802 22.4782 45.1833L27.9023 39.7592L33.3347 34.335C33.8138 33.8057 34.0711 33.1125 34.0533 32.3988C34.0355 31.6851 33.7441 31.0055 33.2393 30.5007C32.7345 29.9958 32.0549 29.7044 31.3412 29.6866C30.6274 29.6689 29.9342 29.9261 29.4049 30.4052Z" fill="white"/>
</svg>
