<svg width="63" height="64" viewBox="0 0 63 64" fill="none" xmlns="http://www.w3.org/2000/svg">
<path d="M47.2882 62.2452C36.6767 63.2717 25.9909 63.2717 15.3794 62.2452C11.7135 61.8822 8.28667 60.2598 5.68258 57.6541C3.0785 55.0484 1.45814 51.6206 1.09745 47.9544C0.0786827 37.3366 0.0786827 26.6457 1.09745 16.0279C1.462 12.3649 3.08406 8.94126 5.68779 6.33914C8.29153 3.73702 11.7162 2.11708 15.3794 1.7548C25.9909 0.72832 36.6767 0.72832 47.2882 1.7548C50.9514 2.11708 54.3761 3.73702 56.9798 6.33914C59.5835 8.94126 61.2056 12.3649 61.5701 16.0279C62.5878 26.6398 62.5878 37.3248 61.5701 47.9367C61.2133 51.606 59.5947 55.038 56.9902 57.6472C54.3858 60.2565 50.9569 61.8815 47.2882 62.2452Z" fill="black"/>
<path d="M47.3413 24.2431H47.0973C46.3951 24.2431 45.7216 24.522 45.2251 25.0186C44.7285 25.5151 44.4496 26.1886 44.4496 26.8908V27.1364C44.4496 27.8386 44.7285 28.512 45.2251 29.0086C45.7216 29.5051 46.3951 29.7841 47.0973 29.7841H47.3413C47.6899 29.7855 48.0354 29.7181 48.3579 29.5857C48.6804 29.4533 48.9736 29.2585 49.2206 29.0125C49.4677 28.7665 49.6637 28.4741 49.7974 28.1521C49.9312 27.8302 50 27.485 50 27.1364V26.8908C50 26.5422 49.9312 26.197 49.7974 25.875C49.6637 25.5531 49.4677 25.2607 49.2206 25.0147C48.9736 24.7687 48.6804 24.5739 48.3579 24.4415C48.0354 24.309 47.6899 24.2416 47.3413 24.2431Z" fill="white"/>
<path d="M47.3413 35.0513H47.0973C46.3951 35.0513 45.7216 35.3302 45.2251 35.8268C44.7285 36.3233 44.4496 36.9968 44.4496 37.699V37.943C44.4496 38.6452 44.7285 39.3187 45.2251 39.8152C45.7216 40.3118 46.3951 40.5907 47.0973 40.5907H47.3413C47.6901 40.5922 48.0357 40.5247 48.3583 40.3922C48.6809 40.2597 48.9741 40.0647 49.2212 39.8186C49.4682 39.5724 49.6642 39.2798 49.7979 38.9577C49.9315 38.6356 50.0002 38.2902 50 37.9414V37.6974C49.9998 37.349 49.9308 37.0039 49.797 36.6821C49.6631 36.3604 49.4671 36.0682 49.2201 35.8223C48.9731 35.5765 48.68 35.3818 48.3576 35.2495C48.0352 35.1172 47.6898 35.0498 47.3413 35.0513Z" fill="white"/>
<path d="M41.8034 40.5895H21.1328V35.0797H30.3369C30.8596 35.0763 31.3697 34.9189 31.8034 34.6273C32.2371 34.3356 32.5752 33.9225 32.7755 33.4397C32.9757 32.9569 33.0292 32.4258 32.9293 31.9128C32.8294 31.3998 32.5805 30.9276 32.2137 30.5552C31.968 30.3082 31.6756 30.1125 31.3535 29.9797C31.0316 29.8466 30.6868 29.7781 30.3385 29.778H21.1328V24.2432H41.8034C42.4947 24.2264 43.152 23.94 43.635 23.4451C44.118 22.9502 44.3884 22.2861 44.3884 21.5946C44.3884 20.9031 44.118 20.239 43.635 19.7442C43.152 19.2493 42.4947 18.9629 41.8034 18.9461H32.9312V15.6478C32.9312 14.9455 32.6522 14.2721 32.1557 13.7755C31.6591 13.279 30.9856 13 30.2834 13H30.0394C29.3372 13 28.6637 13.279 28.1672 13.7755C27.6706 14.2721 27.3917 14.9455 27.3917 15.6478V18.943H18.252C17.9031 18.9432 17.5577 19.0125 17.2356 19.1466C16.9135 19.2808 16.6212 19.4774 16.3753 19.7249C16.1282 19.9712 15.9325 20.2641 15.7998 20.5867C15.6651 20.9082 15.5949 21.2531 15.5933 21.6017V43.231C15.5933 43.9361 15.8734 44.6124 16.372 45.111C16.8706 45.6096 17.5469 45.8897 18.252 45.8897H27.3917V49.174C27.3917 49.8772 27.6703 50.5518 28.1665 51.0501C28.6628 51.5484 29.3362 51.8298 30.0394 51.8327H30.2834C30.9866 51.8298 31.6601 51.5484 32.1563 51.0501C32.6526 50.5518 32.9312 49.8772 32.9312 49.174V45.8897H41.8034C42.4947 45.8729 43.152 45.5865 43.635 45.0916C44.118 44.5967 44.3884 43.9326 44.3884 43.2411C44.3884 42.5496 44.118 41.8856 43.635 41.3907C43.152 40.8958 42.4947 40.6094 41.8034 40.5926V40.5895Z" fill="white"/>
<path d="M41.8035 29.7824H36.6038C36.2505 29.7739 35.8992 29.836 35.5703 29.9653C35.2415 30.0945 34.9418 30.2882 34.6889 30.535C34.4361 30.7818 34.2351 31.0767 34.0979 31.4023C33.9608 31.7279 33.8901 32.0776 33.8901 32.431C33.8901 32.7843 33.9608 33.1341 34.0979 33.4597C34.2351 33.7853 34.4361 34.0802 34.6889 34.3269C34.9418 34.5737 35.2415 34.7675 35.5703 34.8967C35.8992 35.0259 36.2505 35.0881 36.6038 35.0795H41.8098C42.5011 35.0627 43.1584 34.7763 43.6414 34.2814C44.1244 33.7866 44.3947 33.1225 44.3947 32.431C44.3947 31.7395 44.1244 31.0754 43.6414 30.5805C43.1584 30.0857 42.5011 29.7992 41.8098 29.7824H41.8035Z" fill="white"/>
</svg>
