<svg width="62" height="64" viewBox="0 0 62 64" fill="none" xmlns="http://www.w3.org/2000/svg">
<path d="M46.9548 62.2452C36.3433 63.2717 25.6575 63.2717 15.046 62.2452C11.3801 61.8822 7.9533 60.2598 5.34921 57.6541C2.74513 55.0484 1.12477 51.6206 0.764074 47.9544C-0.254691 37.3366 -0.254691 26.6457 0.764074 16.0279C1.12863 12.3649 2.75069 8.94126 5.35442 6.33914C7.95816 3.73702 11.3828 2.11708 15.046 1.7548C25.6575 0.72832 36.3433 0.72832 46.9548 1.7548C50.618 2.11708 54.0427 3.73702 56.6464 6.33914C59.2502 8.94126 60.8722 12.3649 61.2368 16.0279C62.2544 26.6398 62.2544 37.3248 61.2368 47.9367C60.8799 51.606 59.2613 55.038 56.6569 57.6472C54.0524 60.2565 50.6235 61.8815 46.9548 62.2452Z" fill="black"/>
<path d="M37.4661 39.911C36.7161 39.911 35.9968 40.209 35.4665 40.7393C34.9361 41.2696 34.6382 41.9889 34.6382 42.7389C34.6382 42.7894 34.6382 42.8362 34.6382 42.8866C34.6382 42.9371 34.6382 42.9821 34.6382 43.0307C34.6383 43.6835 34.3816 44.3101 33.9236 44.7752C33.4656 45.2402 32.843 45.5065 32.1903 45.5164H29.6254C28.9874 45.4786 28.3872 45.2014 27.9448 44.7401C27.4988 44.2779 27.2417 43.6656 27.2243 43.0235C27.224 42.6035 27.142 42.1875 26.983 41.7987C26.8191 41.4098 26.579 41.0576 26.2769 40.763C25.9744 40.4859 25.6191 40.2727 25.2322 40.1362C24.8387 39.9852 24.4196 39.9124 23.9983 39.9218H15.8135C15.3871 39.9168 14.9647 40.0053 14.5761 40.1812C14.0869 40.4076 13.6728 40.7692 13.3825 41.2234C13.0922 41.6776 12.938 42.2053 12.938 42.7443C12.938 43.2834 13.0922 43.8111 13.3825 44.2653C13.6728 44.7195 14.0869 45.0811 14.5761 45.3075C14.9638 45.4842 15.3858 45.5728 15.8118 45.5669H24.6107C25.2649 45.5648 25.894 45.8188 26.3632 46.2746C26.8325 46.7304 27.1047 47.3518 27.1217 48.0057V48.6578C27.1162 49.1328 27.2152 49.6032 27.4117 50.0357C27.6632 50.5823 28.0658 51.0455 28.5719 51.3707C29.0781 51.6959 29.6668 51.8696 30.2684 51.8712H31.5725C31.9917 51.8708 32.4071 51.792 32.7973 51.6388C33.1828 51.4849 33.5328 51.2538 33.8258 50.9597C34.1185 50.6757 34.355 50.339 34.5229 49.9673C34.6828 49.5819 34.7648 49.1687 34.7643 48.7514V48.0454C34.7869 47.402 35.0499 46.7905 35.5015 46.3316C35.953 45.8727 36.5602 45.5998 37.2031 45.5669H37.4661C37.8375 45.5669 38.2052 45.4937 38.5483 45.3516C38.8914 45.2095 39.2032 45.0012 39.4658 44.7386C39.7284 44.476 39.9367 44.1642 40.0788 43.8211C40.2209 43.478 40.294 43.1103 40.294 42.7389C40.294 42.3676 40.2209 41.9998 40.0788 41.6567C39.9367 41.3136 39.7284 41.0019 39.4658 40.7393C39.2032 40.4767 38.8914 40.2684 38.5483 40.1263C38.2052 39.9842 37.8375 39.911 37.4661 39.911Z" fill="white"/>
<path d="M43.5454 29.0501H34.8257C34.0761 29.0505 33.3568 29.3455 32.8227 29.8714C32.5631 30.1307 32.3542 30.4361 32.2067 30.7721C31.9388 31.4219 31.9218 32.1482 32.1591 32.8098C32.3964 33.4715 32.8711 34.0214 33.491 34.3529C33.9016 34.5726 34.36 34.6877 34.8257 34.6879H44.4587C45.0219 34.6869 45.5646 34.8988 45.9781 35.2812C46.3916 35.6637 46.6452 36.1883 46.688 36.7499C46.7309 37.3114 46.5598 37.8684 46.2091 38.3092C45.8585 38.7499 45.3541 39.0417 44.7973 39.1262C44.4083 39.1834 44.0362 39.3237 43.7062 39.5375C43.3762 39.7512 43.0961 40.0335 42.8848 40.365C42.6735 40.6966 42.536 41.0698 42.4816 41.4592C42.4272 41.8485 42.4572 42.2451 42.5696 42.6219C42.6819 42.9986 42.874 43.3468 43.1328 43.6428C43.3916 43.9388 43.711 44.1757 44.0694 44.3374C44.4279 44.499 44.8168 44.5817 45.21 44.5798C45.6032 44.5779 45.9913 44.4914 46.3482 44.3263C47.8461 43.7573 49.1356 42.7462 50.0454 41.4272C50.9552 40.1082 51.4423 38.5436 51.442 36.9413C51.4401 34.848 50.6074 32.8412 49.1267 31.3615C47.6461 29.8819 45.6387 29.0506 43.5454 29.0501Z" fill="white"/>
<path d="M24.5452 23.8432C25.2952 23.8432 26.0145 23.5453 26.5449 23.015C27.0752 22.4846 27.3731 21.7653 27.3731 21.0153C27.3731 20.9649 27.3731 20.918 27.3731 20.8694C27.3731 20.8208 27.3731 20.7721 27.3731 20.7235C27.3721 20.0705 27.6285 19.4434 28.0867 18.9781C28.5449 18.5128 29.168 18.2468 29.821 18.2378H32.386C33.0228 18.2773 33.6215 18.5551 34.0629 19.0159C34.5081 19.4787 34.7649 20.0907 34.7834 20.7325C34.783 21.1526 34.865 21.5688 35.0248 21.9574C35.1875 22.3468 35.4278 22.6992 35.7308 22.9931C36.0326 23.2712 36.3881 23.4845 36.7756 23.6199C37.169 23.7708 37.5881 23.8436 38.0094 23.8342H46.1942C46.6201 23.839 47.0418 23.7505 47.4298 23.5749C47.919 23.3485 48.3332 22.9868 48.6234 22.5327C48.9137 22.0785 49.0679 21.5507 49.0679 21.0117C49.0679 20.4727 48.9137 19.9449 48.6234 19.4908C48.3332 19.0366 47.919 18.6749 47.4298 18.4486C47.0425 18.2727 46.6213 18.1842 46.196 18.1892H37.4006C36.746 18.1927 36.1162 17.9391 35.6466 17.483C35.177 17.0269 34.9052 16.4047 34.8897 15.7503V15.0983C34.8951 14.6233 34.7961 14.1529 34.5997 13.7203C34.3476 13.1742 33.9449 12.7113 33.4388 12.3862C32.9328 12.0611 32.3444 11.8871 31.7429 11.8849H30.4388C30.0197 11.8858 29.6044 11.9646 29.214 12.1172C28.8283 12.2707 28.4782 12.5019 28.1855 12.7963C27.8924 13.0814 27.6559 13.4194 27.4884 13.7924C27.3277 14.1775 27.2456 14.5909 27.2471 15.0082V15.7143C27.2236 16.3574 26.9603 16.9685 26.509 17.4272C26.0576 17.8859 25.4509 18.159 24.8082 18.1928H24.5452C23.7952 18.1928 23.0759 18.4907 22.5456 19.0211C22.0152 19.5514 21.7173 20.2707 21.7173 21.0207C21.7173 21.7707 22.0152 22.49 22.5456 23.0204C23.0759 23.5507 23.7952 23.8486 24.5452 23.8486V23.8432Z" fill="white"/>
<path d="M18.4602 34.7052H27.1781C27.9278 34.7052 28.6473 34.4101 29.1811 33.8839C29.4419 33.6256 29.651 33.3199 29.7971 32.9832C29.9746 32.5527 30.0434 32.0851 29.9972 31.6217C29.9511 31.1583 29.7916 30.7134 29.5327 30.3263C29.2738 29.9393 28.9235 29.6219 28.5129 29.4023C28.1022 29.1827 27.6438 29.0677 27.1781 29.0674H17.547C16.9836 29.0689 16.4405 28.8572 16.0267 28.475C15.6129 28.0927 15.3589 27.5681 15.3158 27.0063C15.2728 26.4446 15.4437 25.8874 15.7944 25.4465C16.1451 25.0056 16.6495 24.7136 17.2065 24.6291C17.5957 24.5722 17.9681 24.4322 18.2984 24.2186C18.6287 24.0051 18.9091 23.7229 19.1207 23.3914C19.3323 23.0598 19.4701 22.6866 19.5247 22.2971C19.5793 21.9075 19.5494 21.5108 19.4372 21.1339C19.3249 20.7569 19.1328 20.4085 18.8739 20.1124C18.6151 19.8162 18.2955 19.5792 17.937 19.4175C17.5784 19.2558 17.1893 19.1731 16.796 19.1751C16.4027 19.1771 16.0144 19.2637 15.6575 19.429C14.1595 19.998 12.87 21.0091 11.9602 22.3281C11.0504 23.6471 10.5633 25.2117 10.5636 26.814C10.5655 28.9073 11.3983 30.9141 12.8789 32.3937C14.3595 33.8734 16.367 34.7047 18.4602 34.7052Z" fill="white"/>
</svg>
