<svg width="62" height="64" viewBox="0 0 62 64" fill="none" xmlns="http://www.w3.org/2000/svg">
<path d="M46.9548 62.2452C36.3433 63.2717 25.6575 63.2717 15.046 62.2452C11.3801 61.8822 7.9533 60.2598 5.34921 57.6541C2.74513 55.0484 1.12477 51.6206 0.764074 47.9544C-0.254691 37.3366 -0.254691 26.6457 0.764074 16.0279C1.12863 12.3649 2.75069 8.94127 5.35442 6.33915C7.95816 3.73703 11.3828 2.1171 15.046 1.75481C25.6575 0.728335 36.3433 0.728335 46.9548 1.75481C50.618 2.1171 54.0427 3.73703 56.6464 6.33915C59.2502 8.94127 60.8722 12.3649 61.2368 16.0279C62.2544 26.6398 62.2544 37.3248 61.2368 47.9367C60.8799 51.606 59.2613 55.038 56.6569 57.6473C54.0524 60.2565 50.6235 61.8816 46.9548 62.2452Z" fill="black"/>
<path d="M38.3433 30.6216C39.7413 30.6216 40.8746 29.4883 40.8746 28.0903C40.8746 26.6923 39.7413 25.5591 38.3433 25.5591C36.9453 25.5591 35.812 26.6923 35.812 28.0903C35.812 29.4883 36.9453 30.6216 38.3433 30.6216Z" fill="white"/>
<path d="M38.3433 24.2856C39.7413 24.2856 40.8746 23.1523 40.8746 21.7543C40.8746 20.3563 39.7413 19.2231 38.3433 19.2231C36.9453 19.2231 35.812 20.3563 35.812 21.7543C35.812 23.1523 36.9453 24.2856 38.3433 24.2856Z" fill="white"/>
<path d="M23.0348 30.6216C24.4328 30.6216 25.5661 29.4883 25.5661 28.0903C25.5661 26.6923 24.4328 25.5591 23.0348 25.5591C21.6368 25.5591 20.5035 26.6923 20.5035 28.0903C20.5035 29.4883 21.6368 30.6216 23.0348 30.6216Z" fill="white"/>
<path d="M23.0348 24.2856C24.4328 24.2856 25.5661 23.1523 25.5661 21.7543C25.5661 20.3563 24.4328 19.2231 23.0348 19.2231C21.6368 19.2231 20.5035 20.3563 20.5035 21.7543C20.5035 23.1523 21.6368 24.2856 23.0348 24.2856Z" fill="white"/>
<path d="M27.6377 35.1045C29.0357 35.1045 30.169 33.9712 30.169 32.5732C30.169 31.1752 29.0357 30.0419 27.6377 30.0419C26.2398 30.0419 25.1064 31.1752 25.1064 32.5732C25.1064 33.9712 26.2398 35.1045 27.6377 35.1045Z" fill="white"/>
<path d="M33.7385 35.1045C35.1365 35.1045 36.2698 33.9712 36.2698 32.5732C36.2698 31.1752 35.1365 30.0419 33.7385 30.0419C32.3406 30.0419 31.2073 31.1752 31.2073 32.5732C31.2073 33.9712 32.3406 35.1045 33.7385 35.1045Z" fill="white"/>
<path d="M27.6377 19.796C29.0357 19.796 30.169 18.6627 30.169 17.2647C30.169 15.8667 29.0357 14.7334 27.6377 14.7334C26.2398 14.7334 25.1064 15.8667 25.1064 17.2647C25.1064 18.6627 26.2398 19.796 27.6377 19.796Z" fill="white"/>
<path d="M33.7385 19.796C35.1365 19.796 36.2698 18.6627 36.2698 17.2647C36.2698 15.8667 35.1365 14.7334 33.7385 14.7334C32.3406 14.7334 31.2073 15.8667 31.2073 17.2647C31.2073 18.6627 32.3406 19.796 33.7385 19.796Z" fill="white"/>
<path d="M44.0897 48.3513C43.7144 48.3529 43.3434 48.2714 43.0034 48.1124C42.6634 47.9535 42.3629 47.7212 42.1234 47.4322C39.9312 44.8255 35.4336 43.138 30.6649 43.138C25.8961 43.138 21.4739 44.7728 19.2364 47.3945C18.7958 47.912 18.1677 48.2333 17.4903 48.2877C16.8128 48.3421 16.1415 48.1251 15.624 47.6845C15.1066 47.244 14.7853 46.6159 14.7309 45.9384C14.6765 45.261 14.8934 44.5897 15.334 44.0722C18.5659 40.3054 24.299 38.0453 30.6649 38.0453C37.0307 38.0453 42.8316 40.3054 46.0485 44.1701C46.2646 44.4278 46.4279 44.7256 46.529 45.0464C46.6301 45.3673 46.667 45.7049 46.6376 46.04C46.6082 46.375 46.5131 46.7011 46.3577 46.9994C46.2024 47.2977 45.9898 47.5626 45.732 47.7787C45.2694 48.1576 44.6876 48.3604 44.0897 48.3513Z" fill="white"/>
</svg>
