<svg width="35" height="35" viewBox="0 0 35 35" fill="none" xmlns="http://www.w3.org/2000/svg">
<path d="M16.9032 24.1976C18.1886 24.1976 19.2305 23.1556 19.2305 21.8703C19.2305 20.5849 18.1886 19.543 16.9032 19.543C15.6179 19.543 14.5759 20.5849 14.5759 21.8703C14.5759 23.1556 15.6179 24.1976 16.9032 24.1976Z" fill="white"/>
<path d="M21.5212 19.5843C22.8065 19.5843 23.8484 18.5423 23.8484 17.257C23.8484 15.9717 22.8065 14.9297 21.5212 14.9297C20.2358 14.9297 19.1938 15.9717 19.1938 17.257C19.1938 18.5423 20.2358 19.5843 21.5212 19.5843Z" fill="white"/>
<path d="M26.1344 14.9666C27.4198 14.9666 28.4617 13.9246 28.4617 12.6393C28.4617 11.354 27.4198 10.312 26.1344 10.312C24.8491 10.312 23.8071 11.354 23.8071 12.6393C23.8071 13.9246 24.8491 14.9666 26.1344 14.9666Z" fill="white"/>
<path d="M30.755 10.345C32.0404 10.345 33.0823 9.30306 33.0823 8.01773C33.0823 6.7324 32.0404 5.69043 30.755 5.69043C29.4697 5.69043 28.4277 6.7324 28.4277 8.01773C28.4277 9.30306 29.4697 10.345 30.755 10.345Z" fill="white"/>
<path d="M13.9292 24.5653L5.25721 14.799C5.21256 14.7359 5.16398 14.6758 5.11176 14.6189C4.89527 14.4028 4.63835 14.2316 4.35567 14.1148C4.073 13.9981 3.7701 13.9382 3.46426 13.9385C3.15843 13.9388 2.85564 13.9994 2.57321 14.1167C2.29078 14.234 2.03424 14.4058 1.81821 14.6223C1.60218 14.8388 1.43091 15.0957 1.31417 15.3784C1.19743 15.6611 1.1375 15.964 1.13782 16.2698C1.13814 16.5757 1.1987 16.8784 1.31603 17.1609C1.43337 17.4433 1.60519 17.6998 1.82167 17.9159L10.646 27.8485C11.0862 28.2654 11.6717 28.494 12.278 28.4858C12.8842 28.4775 13.4633 28.233 13.892 27.8043C14.3207 27.3756 14.5651 26.7965 14.5734 26.1903C14.5816 25.5841 14.353 24.9986 13.9361 24.5584L13.9292 24.5653Z" fill="white"/>
</svg>
